<svg width="38" height="38" viewBox="0 0 38 38" fill="none" xmlns="http://www.w3.org/2000/svg">
<circle cx="18.9997" cy="18.9997" r="18.9997" fill="#3D566C"/>
<g clip-path="url(#clip0_393_124)">
<path d="M12.9554 14.062H8.41462C8.2131 14.062 8.0498 14.2254 8.0498 14.4268V29.0143C8.0498 29.2158 8.2131 29.3791 8.41462 29.3791H12.9554C13.1569 29.3791 13.3202 29.2158 13.3202 29.0143V14.4268C13.3202 14.2254 13.1569 14.062 12.9554 14.062Z" fill="white"/>
<path d="M10.6866 6.8103C9.03444 6.8103 7.69031 8.15298 7.69031 9.80334C7.69031 11.4544 9.03444 12.7976 10.6866 12.7976C12.3375 12.7976 13.6805 11.4544 13.6805 9.80334C13.6806 8.15298 12.3375 6.8103 10.6866 6.8103Z" fill="white"/>
<path d="M24.505 13.6995C22.6813 13.6995 21.3331 14.4835 20.5154 15.3743V14.4268C20.5154 14.2254 20.3521 14.062 20.1506 14.062H15.8021C15.6005 14.062 15.4373 14.2254 15.4373 14.4268V29.0143C15.4373 29.2158 15.6005 29.3791 15.8021 29.3791H20.3329C20.5344 29.3791 20.6977 29.2158 20.6977 29.0143V21.7969C20.6977 19.3648 21.3583 18.4173 23.0537 18.4173C24.9001 18.4173 25.0468 19.9362 25.0468 21.922V29.0144C25.0468 29.2159 25.2101 29.3792 25.4117 29.3792H29.9441C30.1457 29.3792 30.309 29.2159 30.309 29.0144V21.0129C30.309 17.3964 29.6194 13.6995 24.505 13.6995Z" fill="white"/>
</g>
<defs>
<clipPath id="clip0_393_124">
<rect width="22.6187" height="22.6187" fill="white" transform="translate(7.69031 6.7854)"/>
</clipPath>
</defs>
</svg>
