<svg width="386" height="66" viewBox="0 0 386 66" fill="none" xmlns="http://www.w3.org/2000/svg">
<path d="M32.0713 29V8.85H40.9063V10.71H34.2413V17.84H39.6663V19.7H34.2413V27.14H41.2163V29H32.0713ZM54.8659 29V8.85H57.9039L61.6859 22.459L65.4369 8.85H68.4749V29H66.3049V12.322L62.6779 25.28H60.6629L57.0359 12.322V29H54.8659ZM83.6548 29V8.85H86.6928L90.4748 22.459L94.2258 8.85H97.2638V29H95.0938V12.322L91.4668 25.28H89.4518L85.8248 12.322V29H83.6548ZM118.396 8.85L122.953 29H120.783L119.729 24.35H113.808L112.754 29H110.584L115.141 8.85H118.396ZM114.211 22.49H119.295L116.753 11.268L114.211 22.49ZM136.268 29V8.85H138.345L145.165 24.35V8.85H147.335V29H145.258L138.438 13.5V29H136.268ZM170.573 8.85H172.743V25.125C172.743 26.4683 172.309 27.5327 171.441 28.318C170.594 29.0827 169.282 29.465 167.504 29.465C165.727 29.465 164.394 29.0827 163.505 28.318C162.637 27.5327 162.203 26.4683 162.203 25.125V8.85H164.373V25.125C164.373 25.8897 164.632 26.4993 165.148 26.954C165.665 27.388 166.45 27.605 167.504 27.605C168.538 27.605 169.302 27.388 169.798 26.954C170.315 26.4993 170.573 25.8897 170.573 25.125V8.85ZM187.609 29V8.85H196.444V10.71H189.779V17.84H195.204V19.7H189.779V27.14H196.754V29H187.609ZM210.404 8.85H212.574V27.14H218.247V29H210.404V8.85ZM251.774 8.85C253.427 8.85 254.657 9.24267 255.463 10.028C256.289 10.7927 256.703 11.8467 256.703 13.19V15.05C256.703 16.8067 255.969 17.933 254.502 18.429C256.176 18.8837 257.013 20.0307 257.013 21.87V24.66C257.013 26.0033 256.61 27.0677 255.804 27.853C254.998 28.6177 253.758 29 252.084 29H247.093V8.85H251.774ZM254.533 13.19C254.533 12.5907 254.295 12.0327 253.82 11.516C253.365 10.9787 252.683 10.71 251.774 10.71H249.263V17.685H251.774C252.704 17.685 253.396 17.406 253.851 16.848C254.305 16.2693 254.533 15.67 254.533 15.05V13.19ZM254.843 21.87C254.843 21.2707 254.605 20.6817 254.13 20.103C253.675 19.5243 252.993 19.235 252.084 19.235H249.263V27.14H252.084C253.014 27.14 253.706 26.8817 254.161 26.365C254.615 25.8483 254.843 25.28 254.843 24.66V21.87ZM271.734 29V8.85H276.415C278.068 8.85 279.298 9.24267 280.104 10.028C280.931 10.7927 281.344 11.8467 281.344 13.19V17.53C281.344 18.5427 281.117 19.4003 280.662 20.103C280.207 20.785 279.525 21.2707 278.616 21.56L282.429 29H280.042L276.415 21.87H273.904V29H271.734ZM279.174 13.19C279.174 12.4253 278.936 11.826 278.461 11.392C278.006 10.9373 277.324 10.71 276.415 10.71H273.904V20.01H276.415C277.345 20.01 278.037 19.793 278.492 19.359C278.947 18.9043 279.174 18.2947 279.174 17.53V13.19ZM303.83 8.85H306V25.125C306 26.4683 305.566 27.5327 304.698 28.318C303.85 29.0827 302.538 29.465 300.761 29.465C298.983 29.465 297.65 29.0827 296.762 28.318C295.894 27.5327 295.46 26.4683 295.46 25.125V8.85H297.63V25.125C297.63 25.8897 297.888 26.4993 298.405 26.954C298.921 27.388 299.707 27.605 300.761 27.605C301.794 27.605 302.559 27.388 303.055 26.954C303.571 26.4993 303.83 25.8897 303.83 25.125V8.85ZM326.817 8.85L331.374 29H329.204L328.15 24.35H322.229L321.175 29H319.005L323.562 8.85H326.817ZM322.632 22.49H327.716L325.174 11.268L322.632 22.49ZM352.966 20.909C353.586 21.5703 354 22.211 354.206 22.831C354.434 23.451 354.547 24.2157 354.547 25.125C354.547 26.4683 354.134 27.5327 353.307 28.318C352.481 29.0827 351.148 29.465 349.308 29.465C347.49 29.465 346.157 29.0827 345.309 28.318C344.483 27.5327 344.069 26.4683 344.069 25.125V22.49H346.239V25.249C346.239 25.9517 346.487 26.52 346.983 26.954C347.5 27.388 348.275 27.605 349.308 27.605C350.342 27.605 351.106 27.388 351.602 26.954C352.119 26.52 352.377 25.9517 352.377 25.249C352.377 24.6083 352.305 24.071 352.16 23.637C352.036 23.203 351.716 22.738 351.199 22.242L345.743 16.91C345.103 16.2487 344.658 15.608 344.41 14.988C344.183 14.368 344.069 13.6137 344.069 12.725C344.069 11.3817 344.493 10.3277 345.34 9.563C346.188 8.77767 347.49 8.385 349.246 8.385C350.982 8.385 352.243 8.77767 353.028 9.563C353.834 10.3277 354.237 11.3817 354.237 12.725V15.36H352.067V12.601C352.067 11.8777 351.83 11.3093 351.354 10.896C350.879 10.462 350.145 10.245 349.153 10.245C348.161 10.245 347.428 10.462 346.952 10.896C346.477 11.3093 346.239 11.8777 346.239 12.601C346.239 13.2417 346.301 13.779 346.425 14.213C346.57 14.647 346.901 15.1017 347.417 15.577L352.966 20.909Z" fill="#463F3A"/>
<path d="M7.85523 49V40.66H8.86323L8.82723 44.644L8.37123 44.308H12.7872L12.3312 44.644L12.3072 40.66H13.3152V49H12.3072L12.3312 44.86L12.7872 45.196H8.37123L8.82723 44.86L8.86323 49H7.85523ZM18.7877 49.156C18.4197 49.156 18.0917 49.072 17.8037 48.904C17.5237 48.728 17.3037 48.476 17.1437 48.148C16.9837 47.812 16.9037 47.408 16.9037 46.936C16.9037 46.368 17.0157 45.924 17.2397 45.604C17.4717 45.276 17.7957 45.044 18.2117 44.908C18.6277 44.772 19.1117 44.704 19.6637 44.704H20.9357C20.9357 44.304 20.9237 43.956 20.8997 43.66C20.8837 43.356 20.8197 43.132 20.7077 42.988C20.6277 42.876 20.5157 42.804 20.3717 42.772C20.2357 42.74 20.0917 42.724 19.9397 42.724C19.6277 42.724 19.3197 42.756 19.0157 42.82C18.7197 42.876 18.4477 42.944 18.1997 43.024C17.9597 43.104 17.7677 43.176 17.6237 43.24C17.4797 43.296 17.4077 43.324 17.4077 43.324L17.0597 42.544C17.0597 42.544 17.1357 42.512 17.2877 42.448C17.4397 42.376 17.6437 42.296 17.8997 42.208C18.1557 42.112 18.4397 42.032 18.7517 41.968C19.0717 41.896 19.3997 41.86 19.7357 41.86C20.2797 41.86 20.7117 41.968 21.0317 42.184C21.3517 42.392 21.5797 42.688 21.7157 43.072C21.8597 43.448 21.9317 43.892 21.9317 44.404V49H21.2837L21.1397 48.268H21.0677C20.9877 48.324 20.8717 48.404 20.7197 48.508C20.5757 48.604 20.4037 48.704 20.2037 48.808C20.0117 48.904 19.7957 48.984 19.5557 49.048C19.3157 49.12 19.0597 49.156 18.7877 49.156ZM18.9557 48.28C19.2437 48.28 19.5157 48.24 19.7717 48.16C20.0357 48.072 20.2677 47.976 20.4677 47.872C20.6757 47.768 20.8317 47.684 20.9357 47.62V45.628C20.8317 45.612 20.6757 45.596 20.4677 45.58C20.2597 45.556 19.9877 45.544 19.6517 45.544C18.9077 45.544 18.4477 45.62 18.2717 45.772C18.1677 45.852 18.0877 45.996 18.0317 46.204C17.9757 46.404 17.9477 46.648 17.9477 46.936C17.9477 47.408 18.0237 47.752 18.1757 47.968C18.3357 48.176 18.5957 48.28 18.9557 48.28ZM28.4277 49.156C28.2117 49.156 27.9437 49.132 27.6237 49.084C27.3117 49.044 26.9957 48.992 26.6757 48.928C26.3557 48.856 26.0797 48.78 25.8477 48.7V39.964H26.8437V42.124C26.9797 42.092 27.1437 42.056 27.3357 42.016C27.5277 41.976 27.7357 41.94 27.9597 41.908C28.1917 41.876 28.4237 41.86 28.6557 41.86C29.3597 41.86 29.8997 42.14 30.2757 42.7C30.6517 43.252 30.8397 44.148 30.8397 45.388C30.8397 46.156 30.7717 46.788 30.6357 47.284C30.4997 47.772 30.3157 48.152 30.0837 48.424C29.8517 48.696 29.5917 48.888 29.3037 49C29.0237 49.104 28.7317 49.156 28.4277 49.156ZM28.4277 48.268C28.6437 48.268 28.8117 48.256 28.9317 48.232C29.0597 48.2 29.1637 48.148 29.2437 48.076C29.3157 48.004 29.3957 47.876 29.4837 47.692C29.5717 47.508 29.6437 47.22 29.6997 46.828C29.7637 46.428 29.7957 45.884 29.7957 45.196C29.7957 44.508 29.7597 43.984 29.6877 43.624C29.6237 43.264 29.5317 43.036 29.4117 42.94C29.2437 42.812 28.9597 42.748 28.5597 42.748C28.1517 42.748 27.7997 42.788 27.5037 42.868C27.2157 42.948 26.9957 43.016 26.8437 43.072V48.076C26.9317 48.1 27.0477 48.128 27.1917 48.16C27.3357 48.184 27.5077 48.208 27.7077 48.232C27.9157 48.256 28.1557 48.268 28.4277 48.268ZM34.6338 49V42.016H35.6298V49H34.6338ZM34.5258 40.828V39.808H35.7498V40.828H34.5258ZM41.6169 49.168C41.2729 49.168 40.9729 49.112 40.7169 49C40.4609 48.88 40.2609 48.656 40.1169 48.328C39.9809 47.992 39.9129 47.496 39.9129 46.84V43.204H39.1209V42.58L39.9489 42.412L40.2129 40.78H40.9089V42.424H42.3009V43.228H40.9089V46.912C40.9089 47.352 40.9209 47.672 40.9449 47.872C40.9689 48.072 41.0289 48.2 41.1249 48.256C41.2289 48.304 41.4009 48.328 41.6409 48.328C41.7689 48.328 41.8809 48.328 41.9769 48.328C42.0729 48.32 42.1489 48.316 42.2049 48.316C42.2609 48.308 42.2889 48.304 42.2889 48.304V49.108C42.2889 49.108 42.2289 49.116 42.1089 49.132C41.9889 49.156 41.8249 49.168 41.6169 49.168ZM47.164 49.156C46.796 49.156 46.468 49.072 46.18 48.904C45.9 48.728 45.68 48.476 45.52 48.148C45.36 47.812 45.28 47.408 45.28 46.936C45.28 46.368 45.392 45.924 45.616 45.604C45.848 45.276 46.172 45.044 46.588 44.908C47.004 44.772 47.488 44.704 48.04 44.704H49.312C49.312 44.304 49.3 43.956 49.276 43.66C49.26 43.356 49.196 43.132 49.084 42.988C49.004 42.876 48.892 42.804 48.748 42.772C48.612 42.74 48.468 42.724 48.316 42.724C48.004 42.724 47.696 42.756 47.392 42.82C47.096 42.876 46.824 42.944 46.576 43.024C46.336 43.104 46.144 43.176 46 43.24C45.856 43.296 45.784 43.324 45.784 43.324L45.436 42.544C45.436 42.544 45.512 42.512 45.664 42.448C45.816 42.376 46.02 42.296 46.276 42.208C46.532 42.112 46.816 42.032 47.128 41.968C47.448 41.896 47.776 41.86 48.112 41.86C48.656 41.86 49.088 41.968 49.408 42.184C49.728 42.392 49.956 42.688 50.092 43.072C50.236 43.448 50.308 43.892 50.308 44.404V49H49.66L49.516 48.268H49.444C49.364 48.324 49.248 48.404 49.096 48.508C48.952 48.604 48.78 48.704 48.58 48.808C48.388 48.904 48.172 48.984 47.932 49.048C47.692 49.12 47.436 49.156 47.164 49.156ZM47.332 48.28C47.62 48.28 47.892 48.24 48.148 48.16C48.412 48.072 48.644 47.976 48.844 47.872C49.052 47.768 49.208 47.684 49.312 47.62V45.628C49.208 45.612 49.052 45.596 48.844 45.58C48.636 45.556 48.364 45.544 48.028 45.544C47.284 45.544 46.824 45.62 46.648 45.772C46.544 45.852 46.464 45.996 46.408 46.204C46.352 46.404 46.324 46.648 46.324 46.936C46.324 47.408 46.4 47.752 46.552 47.968C46.712 48.176 46.972 48.28 47.332 48.28ZM56.18 49.168C55.836 49.168 55.536 49.112 55.28 49C55.024 48.88 54.824 48.656 54.68 48.328C54.544 47.992 54.476 47.496 54.476 46.84V43.204H53.684V42.58L54.512 42.412L54.776 40.78H55.472V42.424H56.864V43.228H55.472V46.912C55.472 47.352 55.484 47.672 55.508 47.872C55.532 48.072 55.592 48.2 55.688 48.256C55.792 48.304 55.964 48.328 56.204 48.328C56.332 48.328 56.444 48.328 56.54 48.328C56.636 48.32 56.712 48.316 56.768 48.316C56.824 48.308 56.852 48.304 56.852 48.304V49.108C56.852 49.108 56.792 49.116 56.672 49.132C56.552 49.156 56.388 49.168 56.18 49.168ZM66.8059 49.156C66.3739 49.156 65.9899 49.032 65.6539 48.784C65.3259 48.536 65.0659 48.152 64.8739 47.632C64.6899 47.112 64.5979 46.448 64.5979 45.64C64.5979 44.864 64.6659 44.232 64.8019 43.744C64.9459 43.248 65.1379 42.864 65.3779 42.592C65.6179 42.32 65.8819 42.132 66.1699 42.028C66.4659 41.916 66.7699 41.86 67.0819 41.86C67.3459 41.86 67.5779 41.876 67.7779 41.908C67.9779 41.94 68.1499 41.976 68.2939 42.016C68.4459 42.056 68.5659 42.096 68.6539 42.136V39.964H69.6499V49H68.9899L68.8579 48.28H68.7979C68.6939 48.36 68.5499 48.472 68.3659 48.616C68.1819 48.752 67.9579 48.876 67.6939 48.988C67.4379 49.1 67.1419 49.156 66.8059 49.156ZM66.8659 48.268C67.0259 48.268 67.1899 48.248 67.3579 48.208C67.5259 48.16 67.6899 48.104 67.8499 48.04C68.0179 47.976 68.1699 47.908 68.3059 47.836C68.4499 47.764 68.5659 47.7 68.6539 47.644V43.06C68.5579 43.02 68.4219 42.976 68.2459 42.928C68.0779 42.88 67.8859 42.84 67.6699 42.808C67.4539 42.768 67.2259 42.748 66.9859 42.748C66.5379 42.748 66.2339 42.844 66.0739 43.036C66.0099 43.124 65.9419 43.264 65.8699 43.456C65.8059 43.648 65.7499 43.924 65.7019 44.284C65.6619 44.636 65.6419 45.104 65.6419 45.688C65.6419 46.344 65.6739 46.84 65.7379 47.176C65.8099 47.512 65.8899 47.744 65.9779 47.872C66.0659 48 66.1339 48.084 66.1819 48.124C66.2459 48.18 66.3379 48.22 66.4579 48.244C66.5779 48.26 66.7139 48.268 66.8659 48.268ZM75.2185 49.156C74.8985 49.156 74.6025 49.08 74.3305 48.928C74.0665 48.768 73.8545 48.508 73.6945 48.148C73.5425 47.788 73.4665 47.292 73.4665 46.66V42.016H74.4625V46.288C74.4625 46.728 74.4745 47.088 74.4985 47.368C74.5225 47.648 74.5665 47.844 74.6305 47.956C74.6865 48.044 74.7745 48.108 74.8945 48.148C75.0225 48.188 75.1665 48.208 75.3265 48.208C75.6865 48.208 76.0425 48.14 76.3945 48.004C76.7545 47.86 77.0905 47.716 77.4025 47.572V42.016H78.3985V49H77.7265L77.6065 48.328H77.5345C77.4145 48.392 77.2345 48.492 76.9945 48.628C76.7545 48.756 76.4825 48.876 76.1785 48.988C75.8745 49.1 75.5545 49.156 75.2185 49.156ZM82.4979 49V42.016H83.1339L83.2659 42.724H83.3379C83.3379 42.724 83.3979 42.68 83.5179 42.592C83.6459 42.504 83.8099 42.404 84.0099 42.292C84.2099 42.18 84.4219 42.08 84.6459 41.992C84.8779 41.904 85.0939 41.86 85.2939 41.86C85.4139 41.86 85.5259 41.872 85.6299 41.896C85.7339 41.912 85.7859 41.92 85.7859 41.92L85.7019 42.88C85.7019 42.88 85.6499 42.876 85.5459 42.868C85.4419 42.86 85.3459 42.856 85.2579 42.856C85.0339 42.856 84.8059 42.888 84.5739 42.952C84.3499 43.016 84.1419 43.096 83.9499 43.192C83.7579 43.288 83.6059 43.38 83.4939 43.468V49H82.4979ZM90.0564 49.156C89.6884 49.156 89.3604 49.072 89.0724 48.904C88.7924 48.728 88.5724 48.476 88.4124 48.148C88.2524 47.812 88.1724 47.408 88.1724 46.936C88.1724 46.368 88.2844 45.924 88.5084 45.604C88.7404 45.276 89.0644 45.044 89.4804 44.908C89.8964 44.772 90.3804 44.704 90.9324 44.704H92.2044C92.2044 44.304 92.1924 43.956 92.1684 43.66C92.1524 43.356 92.0884 43.132 91.9764 42.988C91.8964 42.876 91.7844 42.804 91.6404 42.772C91.5044 42.74 91.3604 42.724 91.2084 42.724C90.8964 42.724 90.5884 42.756 90.2844 42.82C89.9884 42.876 89.7164 42.944 89.4684 43.024C89.2284 43.104 89.0364 43.176 88.8924 43.24C88.7484 43.296 88.6764 43.324 88.6764 43.324L88.3284 42.544C88.3284 42.544 88.4044 42.512 88.5564 42.448C88.7084 42.376 88.9124 42.296 89.1684 42.208C89.4244 42.112 89.7084 42.032 90.0204 41.968C90.3404 41.896 90.6684 41.86 91.0044 41.86C91.5484 41.86 91.9804 41.968 92.3004 42.184C92.6204 42.392 92.8484 42.688 92.9844 43.072C93.1284 43.448 93.2004 43.892 93.2004 44.404V49H92.5524L92.4084 48.268H92.3364C92.2564 48.324 92.1404 48.404 91.9884 48.508C91.8444 48.604 91.6724 48.704 91.4724 48.808C91.2804 48.904 91.0644 48.984 90.8244 49.048C90.5844 49.12 90.3284 49.156 90.0564 49.156ZM90.2244 48.28C90.5124 48.28 90.7844 48.24 91.0404 48.16C91.3044 48.072 91.5364 47.976 91.7364 47.872C91.9444 47.768 92.1004 47.684 92.2044 47.62V45.628C92.1004 45.612 91.9444 45.596 91.7364 45.58C91.5284 45.556 91.2564 45.544 90.9204 45.544C90.1764 45.544 89.7164 45.62 89.5404 45.772C89.4364 45.852 89.3564 45.996 89.3004 46.204C89.2444 46.404 89.2164 46.648 89.2164 46.936C89.2164 47.408 89.2924 47.752 89.4444 47.968C89.6044 48.176 89.8644 48.28 90.2244 48.28ZM99.6965 49.156C99.4805 49.156 99.2125 49.132 98.8925 49.084C98.5805 49.044 98.2645 48.992 97.9445 48.928C97.6245 48.856 97.3485 48.78 97.1165 48.7V39.964H98.1125V42.124C98.2485 42.092 98.4125 42.056 98.6045 42.016C98.7965 41.976 99.0045 41.94 99.2285 41.908C99.4605 41.876 99.6925 41.86 99.9245 41.86C100.628 41.86 101.168 42.14 101.544 42.7C101.92 43.252 102.108 44.148 102.108 45.388C102.108 46.156 102.04 46.788 101.904 47.284C101.768 47.772 101.584 48.152 101.352 48.424C101.12 48.696 100.86 48.888 100.572 49C100.292 49.104 100 49.156 99.6965 49.156ZM99.6965 48.268C99.9125 48.268 100.08 48.256 100.2 48.232C100.328 48.2 100.432 48.148 100.512 48.076C100.584 48.004 100.664 47.876 100.752 47.692C100.84 47.508 100.912 47.22 100.968 46.828C101.032 46.428 101.064 45.884 101.064 45.196C101.064 44.508 101.028 43.984 100.956 43.624C100.892 43.264 100.8 43.036 100.68 42.94C100.512 42.812 100.228 42.748 99.8285 42.748C99.4205 42.748 99.0685 42.788 98.7725 42.868C98.4845 42.948 98.2645 43.016 98.1125 43.072V48.076C98.2005 48.1 98.3165 48.128 98.4605 48.16C98.6045 48.184 98.7765 48.208 98.9765 48.232C99.1845 48.256 99.4245 48.268 99.6965 48.268ZM105.903 49V39.964H106.899V49H105.903ZM113.498 49.168C112.946 49.168 112.458 49.052 112.034 48.82C111.618 48.58 111.294 48.192 111.062 47.656C110.83 47.112 110.714 46.392 110.714 45.496C110.714 44.56 110.834 43.828 111.074 43.3C111.322 42.772 111.654 42.4 112.07 42.184C112.486 41.96 112.954 41.848 113.474 41.848C113.994 41.848 114.434 41.952 114.794 42.16C115.162 42.368 115.442 42.716 115.634 43.204C115.826 43.684 115.922 44.332 115.922 45.148V45.904H111.314L111.782 45.724C111.75 46.252 111.762 46.676 111.818 46.996C111.882 47.308 111.958 47.54 112.046 47.692C112.142 47.844 112.222 47.952 112.286 48.016C112.398 48.112 112.534 48.184 112.694 48.232C112.854 48.28 113.05 48.304 113.282 48.304C113.514 48.304 113.742 48.288 113.966 48.256C114.19 48.216 114.398 48.172 114.59 48.124C114.782 48.068 114.954 48.016 115.106 47.968C115.258 47.912 115.382 47.872 115.478 47.848L115.73 48.652C115.658 48.684 115.518 48.744 115.31 48.832C115.102 48.912 114.842 48.988 114.53 49.06C114.226 49.132 113.882 49.168 113.498 49.168ZM111.782 45.544L111.314 45.112L115.358 45.028L114.902 45.472C114.91 44.904 114.898 44.416 114.866 44.008C114.842 43.6 114.762 43.288 114.626 43.072C114.57 42.984 114.474 42.904 114.338 42.832C114.202 42.752 113.938 42.712 113.546 42.712C113.138 42.712 112.83 42.756 112.622 42.844C112.422 42.932 112.266 43.048 112.154 43.192C111.858 43.584 111.734 44.368 111.782 45.544ZM123.5 45.484V44.644H126.248V45.484H123.5ZM135.386 49L135.41 41.512L133.07 41.548V40.66H138.71V41.548L136.37 41.512L136.394 49H135.386ZM141.223 49V42.016H141.859L141.991 42.724H142.063C142.063 42.724 142.123 42.68 142.243 42.592C142.371 42.504 142.535 42.404 142.735 42.292C142.935 42.18 143.147 42.08 143.371 41.992C143.603 41.904 143.819 41.86 144.019 41.86C144.139 41.86 144.251 41.872 144.355 41.896C144.459 41.912 144.511 41.92 144.511 41.92L144.427 42.88C144.427 42.88 144.375 42.876 144.271 42.868C144.167 42.86 144.071 42.856 143.983 42.856C143.759 42.856 143.531 42.888 143.299 42.952C143.075 43.016 142.867 43.096 142.675 43.192C142.483 43.288 142.331 43.38 142.219 43.468V49H141.223ZM148.782 49.156C148.414 49.156 148.086 49.072 147.798 48.904C147.518 48.728 147.298 48.476 147.138 48.148C146.978 47.812 146.898 47.408 146.898 46.936C146.898 46.368 147.01 45.924 147.234 45.604C147.466 45.276 147.79 45.044 148.206 44.908C148.622 44.772 149.106 44.704 149.658 44.704H150.93C150.93 44.304 150.918 43.956 150.894 43.66C150.878 43.356 150.814 43.132 150.702 42.988C150.622 42.876 150.51 42.804 150.366 42.772C150.23 42.74 150.086 42.724 149.934 42.724C149.622 42.724 149.314 42.756 149.01 42.82C148.714 42.876 148.442 42.944 148.194 43.024C147.954 43.104 147.762 43.176 147.618 43.24C147.474 43.296 147.402 43.324 147.402 43.324L147.054 42.544C147.054 42.544 147.13 42.512 147.282 42.448C147.434 42.376 147.638 42.296 147.894 42.208C148.15 42.112 148.434 42.032 148.746 41.968C149.066 41.896 149.394 41.86 149.73 41.86C150.274 41.86 150.706 41.968 151.026 42.184C151.346 42.392 151.574 42.688 151.71 43.072C151.854 43.448 151.926 43.892 151.926 44.404V49H151.278L151.134 48.268H151.062C150.982 48.324 150.866 48.404 150.714 48.508C150.57 48.604 150.398 48.704 150.198 48.808C150.006 48.904 149.79 48.984 149.55 49.048C149.31 49.12 149.054 49.156 148.782 49.156ZM148.95 48.28C149.238 48.28 149.51 48.24 149.766 48.16C150.03 48.072 150.262 47.976 150.462 47.872C150.67 47.768 150.826 47.684 150.93 47.62V45.628C150.826 45.612 150.67 45.596 150.462 45.58C150.254 45.556 149.982 45.544 149.646 45.544C148.902 45.544 148.442 45.62 148.266 45.772C148.162 45.852 148.082 45.996 148.026 46.204C147.97 46.404 147.942 46.648 147.942 46.936C147.942 47.408 148.018 47.752 148.17 47.968C148.33 48.176 148.59 48.28 148.95 48.28ZM155.974 49V42.016H156.646L156.754 42.7H156.814C156.886 42.66 157.006 42.596 157.174 42.508C157.342 42.412 157.542 42.316 157.774 42.22C158.006 42.116 158.254 42.032 158.518 41.968C158.782 41.896 159.046 41.86 159.31 41.86C159.75 41.86 160.086 41.972 160.318 42.196C160.55 42.412 160.706 42.708 160.786 43.084C160.874 43.46 160.918 43.884 160.918 44.356V49H159.922V44.704C159.922 44.232 159.914 43.872 159.898 43.624C159.882 43.376 159.83 43.188 159.742 43.06C159.678 42.956 159.586 42.888 159.466 42.856C159.346 42.824 159.218 42.808 159.082 42.808C158.794 42.808 158.498 42.856 158.194 42.952C157.898 43.04 157.638 43.136 157.414 43.24C157.19 43.336 157.042 43.404 156.97 43.444V49H155.974ZM166.589 49.156C166.293 49.156 166.009 49.124 165.737 49.06C165.465 49.004 165.221 48.94 165.005 48.868C164.789 48.788 164.617 48.72 164.489 48.664C164.369 48.608 164.309 48.58 164.309 48.58L164.561 47.728C164.561 47.728 164.621 47.756 164.741 47.812C164.869 47.868 165.037 47.936 165.245 48.016C165.453 48.088 165.689 48.152 165.953 48.208C166.217 48.264 166.489 48.292 166.769 48.292C166.929 48.292 167.077 48.28 167.213 48.256C167.349 48.224 167.457 48.172 167.537 48.1C167.625 48.02 167.705 47.9 167.777 47.74C167.849 47.58 167.885 47.388 167.885 47.164C167.885 46.828 167.805 46.572 167.645 46.396C167.485 46.22 167.277 46.084 167.021 45.988C166.765 45.892 166.493 45.804 166.205 45.724C165.973 45.66 165.745 45.588 165.521 45.508C165.297 45.428 165.093 45.32 164.909 45.184C164.733 45.048 164.589 44.868 164.477 44.644C164.373 44.412 164.321 44.116 164.321 43.756C164.321 43.188 164.493 42.732 164.837 42.388C165.189 42.036 165.777 41.86 166.601 41.86C166.881 41.86 167.149 41.88 167.405 41.92C167.661 41.952 167.885 41.992 168.077 42.04C168.277 42.08 168.425 42.116 168.521 42.148L168.365 42.988C168.365 42.988 168.309 42.976 168.197 42.952C168.093 42.92 167.949 42.888 167.765 42.856C167.581 42.824 167.373 42.796 167.141 42.772C166.909 42.74 166.665 42.724 166.409 42.724C166.169 42.724 165.977 42.74 165.833 42.772C165.689 42.796 165.581 42.836 165.509 42.892C165.437 42.948 165.377 43.04 165.329 43.168C165.281 43.288 165.257 43.432 165.257 43.6C165.257 43.936 165.349 44.188 165.533 44.356C165.725 44.524 165.965 44.652 166.253 44.74C166.549 44.828 166.853 44.92 167.165 45.016C167.381 45.08 167.589 45.156 167.789 45.244C167.989 45.332 168.169 45.448 168.329 45.592C168.497 45.736 168.625 45.92 168.713 46.144C168.809 46.368 168.857 46.644 168.857 46.972C168.857 47.62 168.661 48.148 168.269 48.556C167.885 48.956 167.325 49.156 166.589 49.156ZM172.507 49V42.016H173.503V49H172.507ZM172.399 40.828V39.808H173.623V40.828H172.399ZM179.49 49.168C179.146 49.168 178.846 49.112 178.59 49C178.334 48.88 178.134 48.656 177.99 48.328C177.854 47.992 177.786 47.496 177.786 46.84V43.204H176.994V42.58L177.822 42.412L178.086 40.78H178.782V42.424H180.174V43.228H178.782V46.912C178.782 47.352 178.794 47.672 178.818 47.872C178.842 48.072 178.902 48.2 178.998 48.256C179.102 48.304 179.274 48.328 179.514 48.328C179.642 48.328 179.754 48.328 179.85 48.328C179.946 48.32 180.022 48.316 180.078 48.316C180.134 48.308 180.162 48.304 180.162 48.304V49.108C180.162 49.108 180.102 49.116 179.982 49.132C179.862 49.156 179.698 49.168 179.49 49.168ZM183.777 49V42.016H184.773V49H183.777ZM183.669 40.828V39.808H184.893V40.828H183.669ZM191.18 49.156C190.516 49.156 189.992 49.008 189.608 48.712C189.232 48.416 188.964 47.996 188.804 47.452C188.644 46.908 188.564 46.26 188.564 45.508C188.564 44.756 188.644 44.108 188.804 43.564C188.964 43.02 189.232 42.6 189.608 42.304C189.992 42.008 190.516 41.86 191.18 41.86C191.844 41.86 192.364 42.008 192.74 42.304C193.124 42.6 193.396 43.02 193.556 43.564C193.716 44.108 193.796 44.756 193.796 45.508C193.796 46.26 193.716 46.908 193.556 47.452C193.396 47.996 193.124 48.416 192.74 48.712C192.364 49.008 191.844 49.156 191.18 49.156ZM191.18 48.292C191.484 48.292 191.736 48.256 191.936 48.184C192.144 48.112 192.308 47.98 192.428 47.788C192.556 47.596 192.644 47.316 192.692 46.948C192.748 46.58 192.776 46.1 192.776 45.508C192.776 44.916 192.748 44.436 192.692 44.068C192.644 43.7 192.556 43.42 192.428 43.228C192.308 43.028 192.144 42.896 191.936 42.832C191.736 42.76 191.484 42.724 191.18 42.724C190.876 42.724 190.62 42.76 190.412 42.832C190.212 42.896 190.048 43.028 189.92 43.228C189.8 43.42 189.712 43.7 189.656 44.068C189.6 44.436 189.572 44.916 189.572 45.508C189.572 46.1 189.6 46.58 189.656 46.948C189.712 47.316 189.8 47.596 189.92 47.788C190.048 47.98 190.212 48.112 190.412 48.184C190.62 48.256 190.876 48.292 191.18 48.292ZM197.531 49V42.016H198.203L198.311 42.7H198.371C198.443 42.66 198.563 42.596 198.731 42.508C198.899 42.412 199.099 42.316 199.331 42.22C199.563 42.116 199.811 42.032 200.075 41.968C200.339 41.896 200.603 41.86 200.867 41.86C201.307 41.86 201.643 41.972 201.875 42.196C202.107 42.412 202.263 42.708 202.343 43.084C202.431 43.46 202.475 43.884 202.475 44.356V49H201.479V44.704C201.479 44.232 201.471 43.872 201.455 43.624C201.439 43.376 201.387 43.188 201.299 43.06C201.235 42.956 201.143 42.888 201.023 42.856C200.903 42.824 200.775 42.808 200.639 42.808C200.351 42.808 200.055 42.856 199.751 42.952C199.455 43.04 199.195 43.136 198.971 43.24C198.747 43.336 198.599 43.404 198.527 43.444V49H197.531ZM210.32 45.484V44.644H213.068V45.484H210.32ZM221.127 49.012L221.163 45.184L221.127 40.66H222.147L222.099 44.344L222.147 49L221.127 49.012ZM226.298 49V42.016H226.97L227.078 42.7H227.138C227.21 42.66 227.33 42.596 227.498 42.508C227.666 42.412 227.866 42.316 228.098 42.22C228.33 42.116 228.578 42.032 228.842 41.968C229.106 41.896 229.37 41.86 229.634 41.86C230.074 41.86 230.41 41.972 230.642 42.196C230.874 42.412 231.03 42.708 231.11 43.084C231.198 43.46 231.242 43.884 231.242 44.356V49H230.246V44.704C230.246 44.232 230.238 43.872 230.222 43.624C230.206 43.376 230.154 43.188 230.066 43.06C230.002 42.956 229.91 42.888 229.79 42.856C229.67 42.824 229.542 42.808 229.406 42.808C229.118 42.808 228.822 42.856 228.518 42.952C228.222 43.04 227.962 43.136 227.738 43.24C227.514 43.336 227.366 43.404 227.294 43.444V49H226.298ZM237.009 49.168C236.665 49.168 236.365 49.112 236.109 49C235.853 48.88 235.653 48.656 235.509 48.328C235.373 47.992 235.305 47.496 235.305 46.84V43.204H234.513V42.58L235.341 42.412L235.605 40.78H236.301V42.424H237.693V43.228H236.301V46.912C236.301 47.352 236.313 47.672 236.337 47.872C236.361 48.072 236.421 48.2 236.517 48.256C236.621 48.304 236.793 48.328 237.033 48.328C237.161 48.328 237.273 48.328 237.369 48.328C237.465 48.32 237.541 48.316 237.597 48.316C237.653 48.308 237.681 48.304 237.681 48.304V49.108C237.681 49.108 237.621 49.116 237.501 49.132C237.381 49.156 237.217 49.168 237.009 49.168ZM243.672 49.168C243.12 49.168 242.632 49.052 242.208 48.82C241.792 48.58 241.468 48.192 241.236 47.656C241.004 47.112 240.888 46.392 240.888 45.496C240.888 44.56 241.008 43.828 241.248 43.3C241.496 42.772 241.828 42.4 242.244 42.184C242.66 41.96 243.128 41.848 243.648 41.848C244.168 41.848 244.608 41.952 244.968 42.16C245.336 42.368 245.616 42.716 245.808 43.204C246 43.684 246.096 44.332 246.096 45.148V45.904H241.488L241.956 45.724C241.924 46.252 241.936 46.676 241.992 46.996C242.056 47.308 242.132 47.54 242.22 47.692C242.316 47.844 242.396 47.952 242.46 48.016C242.572 48.112 242.708 48.184 242.868 48.232C243.028 48.28 243.224 48.304 243.456 48.304C243.688 48.304 243.916 48.288 244.14 48.256C244.364 48.216 244.572 48.172 244.764 48.124C244.956 48.068 245.128 48.016 245.28 47.968C245.432 47.912 245.556 47.872 245.652 47.848L245.904 48.652C245.832 48.684 245.692 48.744 245.484 48.832C245.276 48.912 245.016 48.988 244.704 49.06C244.4 49.132 244.056 49.168 243.672 49.168ZM241.956 45.544L241.488 45.112L245.532 45.028L245.076 45.472C245.084 44.904 245.072 44.416 245.04 44.008C245.016 43.6 244.936 43.288 244.8 43.072C244.744 42.984 244.648 42.904 244.512 42.832C244.376 42.752 244.112 42.712 243.72 42.712C243.312 42.712 243.004 42.756 242.796 42.844C242.596 42.932 242.44 43.048 242.328 43.192C242.032 43.584 241.908 44.368 241.956 45.544ZM249.831 49V39.964H250.827V49H249.831ZM255.05 49V39.964H256.046V49H255.05ZM260.269 49V42.016H261.265V49H260.269ZM260.161 40.828V39.808H261.385V40.828H260.161ZM267.252 51.148C266.932 51.148 266.632 51.132 266.352 51.1C266.072 51.068 265.828 51.028 265.62 50.98C265.412 50.94 265.248 50.904 265.128 50.872C265.008 50.84 264.948 50.824 264.948 50.824L265.068 49.924C265.516 50.004 265.976 50.072 266.448 50.128C266.92 50.192 267.376 50.224 267.816 50.224C268.264 50.224 268.564 50.188 268.716 50.116C268.868 50.044 268.944 49.932 268.944 49.78C268.944 49.692 268.924 49.612 268.884 49.54C268.844 49.468 268.772 49.392 268.668 49.312C268.564 49.24 268.412 49.156 268.212 49.06C268.012 48.964 267.748 48.848 267.42 48.712C266.964 48.52 266.632 48.384 266.424 48.304C266.224 48.216 266.096 48.16 266.04 48.136C265.992 48.104 265.968 48.076 265.968 48.052C265.968 48.044 265.988 47.992 266.028 47.896C266.068 47.792 266.12 47.668 266.184 47.524C266.248 47.38 266.312 47.232 266.376 47.08C266.44 46.92 266.496 46.784 266.544 46.672C266.016 46.568 265.588 46.312 265.26 45.904C264.94 45.496 264.78 45 264.78 44.416C264.78 43.76 264.908 43.248 265.164 42.88C265.42 42.512 265.756 42.252 266.172 42.1C266.596 41.94 267.052 41.86 267.54 41.86C267.7 41.86 267.888 41.864 268.104 41.872C268.328 41.88 268.552 41.892 268.776 41.908C269.008 41.924 269.22 41.94 269.412 41.956C269.612 41.972 269.772 41.984 269.892 41.992C270.012 42 270.072 42.004 270.072 42.004V42.64L269.28 42.76C269.28 42.752 269.312 42.836 269.376 43.012C269.448 43.18 269.516 43.392 269.58 43.648C269.652 43.896 269.688 44.14 269.688 44.38C269.688 44.836 269.588 45.244 269.388 45.604C269.188 45.956 268.9 46.236 268.524 46.444C268.148 46.644 267.696 46.744 267.168 46.744C267.144 46.872 267.116 47.024 267.084 47.2C267.052 47.368 267.036 47.468 267.036 47.5C267.036 47.516 267.06 47.54 267.108 47.572C267.164 47.596 267.268 47.64 267.42 47.704C267.58 47.76 267.812 47.856 268.116 47.992C268.58 48.184 268.936 48.372 269.184 48.556C269.432 48.74 269.604 48.92 269.7 49.096C269.796 49.272 269.844 49.448 269.844 49.624C269.844 49.944 269.732 50.216 269.508 50.44C269.292 50.672 268.988 50.848 268.596 50.968C268.212 51.088 267.764 51.148 267.252 51.148ZM267.228 45.88C267.588 45.88 267.876 45.836 268.092 45.748C268.316 45.66 268.476 45.508 268.572 45.292C268.676 45.068 268.728 44.756 268.728 44.356C268.728 43.9 268.7 43.536 268.644 43.264C268.588 42.984 268.536 42.832 268.488 42.808C268.472 42.792 268.404 42.78 268.284 42.772C268.164 42.756 268.032 42.748 267.888 42.748C267.744 42.74 267.616 42.736 267.504 42.736C267.4 42.728 267.348 42.724 267.348 42.724C266.972 42.724 266.664 42.768 266.424 42.856C266.192 42.944 266.02 43.104 265.908 43.336C265.804 43.568 265.752 43.908 265.752 44.356C265.752 44.948 265.864 45.352 266.088 45.568C266.32 45.776 266.7 45.88 267.228 45.88ZM275.802 49.168C275.25 49.168 274.762 49.052 274.338 48.82C273.922 48.58 273.598 48.192 273.366 47.656C273.134 47.112 273.018 46.392 273.018 45.496C273.018 44.56 273.138 43.828 273.378 43.3C273.626 42.772 273.958 42.4 274.374 42.184C274.79 41.96 275.258 41.848 275.778 41.848C276.298 41.848 276.738 41.952 277.098 42.16C277.466 42.368 277.746 42.716 277.938 43.204C278.13 43.684 278.226 44.332 278.226 45.148V45.904H273.618L274.086 45.724C274.054 46.252 274.066 46.676 274.122 46.996C274.186 47.308 274.262 47.54 274.35 47.692C274.446 47.844 274.526 47.952 274.59 48.016C274.702 48.112 274.838 48.184 274.998 48.232C275.158 48.28 275.354 48.304 275.586 48.304C275.818 48.304 276.046 48.288 276.27 48.256C276.494 48.216 276.702 48.172 276.894 48.124C277.086 48.068 277.258 48.016 277.41 47.968C277.562 47.912 277.686 47.872 277.782 47.848L278.034 48.652C277.962 48.684 277.822 48.744 277.614 48.832C277.406 48.912 277.146 48.988 276.834 49.06C276.53 49.132 276.186 49.168 275.802 49.168ZM274.086 45.544L273.618 45.112L277.662 45.028L277.206 45.472C277.214 44.904 277.202 44.416 277.17 44.008C277.146 43.6 277.066 43.288 276.93 43.072C276.874 42.984 276.778 42.904 276.642 42.832C276.506 42.752 276.242 42.712 275.85 42.712C275.442 42.712 275.134 42.756 274.926 42.844C274.726 42.932 274.57 43.048 274.458 43.192C274.162 43.584 274.038 44.368 274.086 45.544ZM281.902 49V42.016H282.574L282.682 42.7H282.742C282.814 42.66 282.934 42.596 283.102 42.508C283.27 42.412 283.47 42.316 283.702 42.22C283.934 42.116 284.182 42.032 284.446 41.968C284.71 41.896 284.974 41.86 285.238 41.86C285.678 41.86 286.014 41.972 286.246 42.196C286.478 42.412 286.634 42.708 286.714 43.084C286.802 43.46 286.846 43.884 286.846 44.356V49H285.85V44.704C285.85 44.232 285.842 43.872 285.826 43.624C285.81 43.376 285.758 43.188 285.67 43.06C285.606 42.956 285.514 42.888 285.394 42.856C285.274 42.824 285.146 42.808 285.01 42.808C284.722 42.808 284.426 42.856 284.122 42.952C283.826 43.04 283.566 43.136 283.342 43.24C283.118 43.336 282.97 43.404 282.898 43.444V49H281.902ZM293.177 49.156C292.633 49.156 292.153 49.032 291.737 48.784C291.321 48.536 290.997 48.144 290.765 47.608C290.533 47.064 290.417 46.356 290.417 45.484C290.417 44.772 290.493 44.18 290.645 43.708C290.805 43.236 291.021 42.868 291.293 42.604C291.565 42.332 291.885 42.14 292.253 42.028C292.621 41.916 293.013 41.86 293.429 41.86C293.733 41.86 294.041 41.88 294.353 41.92C294.673 41.96 294.933 42.004 295.133 42.052L295.013 42.892C294.861 42.876 294.621 42.848 294.293 42.808C293.965 42.76 293.613 42.736 293.237 42.736C292.941 42.736 292.689 42.76 292.481 42.808C292.281 42.856 292.125 42.936 292.013 43.048C291.861 43.216 291.729 43.524 291.617 43.972C291.513 44.412 291.461 44.94 291.461 45.556C291.461 46.124 291.505 46.584 291.593 46.936C291.681 47.28 291.785 47.544 291.905 47.728C292.025 47.904 292.133 48.028 292.229 48.1C292.293 48.148 292.377 48.192 292.481 48.232C292.593 48.272 292.749 48.292 292.949 48.292C293.181 48.292 293.417 48.264 293.657 48.208C293.897 48.152 294.117 48.088 294.317 48.016C294.517 47.944 294.677 47.88 294.797 47.824C294.925 47.768 294.989 47.74 294.989 47.74L295.301 48.52C295.301 48.52 295.213 48.572 295.037 48.676C294.861 48.78 294.613 48.888 294.293 49C293.973 49.104 293.601 49.156 293.177 49.156ZM301.116 49.168C300.564 49.168 300.076 49.052 299.652 48.82C299.236 48.58 298.912 48.192 298.68 47.656C298.448 47.112 298.332 46.392 298.332 45.496C298.332 44.56 298.452 43.828 298.692 43.3C298.94 42.772 299.272 42.4 299.688 42.184C300.104 41.96 300.572 41.848 301.092 41.848C301.612 41.848 302.052 41.952 302.412 42.16C302.78 42.368 303.06 42.716 303.252 43.204C303.444 43.684 303.54 44.332 303.54 45.148V45.904H298.932L299.4 45.724C299.368 46.252 299.38 46.676 299.436 46.996C299.5 47.308 299.576 47.54 299.664 47.692C299.76 47.844 299.84 47.952 299.904 48.016C300.016 48.112 300.152 48.184 300.312 48.232C300.472 48.28 300.668 48.304 300.9 48.304C301.132 48.304 301.36 48.288 301.584 48.256C301.808 48.216 302.016 48.172 302.208 48.124C302.4 48.068 302.572 48.016 302.724 47.968C302.876 47.912 303 47.872 303.096 47.848L303.348 48.652C303.276 48.684 303.136 48.744 302.928 48.832C302.72 48.912 302.46 48.988 302.148 49.06C301.844 49.132 301.5 49.168 301.116 49.168ZM299.4 45.544L298.932 45.112L302.976 45.028L302.52 45.472C302.528 44.904 302.516 44.416 302.484 44.008C302.46 43.6 302.38 43.288 302.244 43.072C302.188 42.984 302.092 42.904 301.956 42.832C301.82 42.752 301.556 42.712 301.164 42.712C300.756 42.712 300.448 42.756 300.24 42.844C300.04 42.932 299.884 43.048 299.772 43.192C299.476 43.584 299.352 44.368 299.4 45.544ZM314.166 49.156C313.622 49.156 313.142 49.032 312.726 48.784C312.31 48.536 311.986 48.144 311.754 47.608C311.522 47.064 311.406 46.356 311.406 45.484C311.406 44.772 311.482 44.18 311.634 43.708C311.794 43.236 312.01 42.868 312.282 42.604C312.554 42.332 312.874 42.14 313.242 42.028C313.61 41.916 314.002 41.86 314.418 41.86C314.722 41.86 315.03 41.88 315.342 41.92C315.662 41.96 315.922 42.004 316.122 42.052L316.002 42.892C315.85 42.876 315.61 42.848 315.282 42.808C314.954 42.76 314.602 42.736 314.226 42.736C313.93 42.736 313.678 42.76 313.47 42.808C313.27 42.856 313.114 42.936 313.002 43.048C312.85 43.216 312.718 43.524 312.606 43.972C312.502 44.412 312.45 44.94 312.45 45.556C312.45 46.124 312.494 46.584 312.582 46.936C312.67 47.28 312.774 47.544 312.894 47.728C313.014 47.904 313.122 48.028 313.218 48.1C313.282 48.148 313.366 48.192 313.47 48.232C313.582 48.272 313.738 48.292 313.938 48.292C314.17 48.292 314.406 48.264 314.646 48.208C314.886 48.152 315.106 48.088 315.306 48.016C315.506 47.944 315.666 47.88 315.786 47.824C315.914 47.768 315.978 47.74 315.978 47.74L316.29 48.52C316.29 48.52 316.202 48.572 316.026 48.676C315.85 48.78 315.602 48.888 315.282 49C314.962 49.104 314.59 49.156 314.166 49.156ZM321.913 49.156C321.249 49.156 320.725 49.008 320.341 48.712C319.965 48.416 319.697 47.996 319.537 47.452C319.377 46.908 319.297 46.26 319.297 45.508C319.297 44.756 319.377 44.108 319.537 43.564C319.697 43.02 319.965 42.6 320.341 42.304C320.725 42.008 321.249 41.86 321.913 41.86C322.577 41.86 323.097 42.008 323.473 42.304C323.857 42.6 324.129 43.02 324.289 43.564C324.449 44.108 324.529 44.756 324.529 45.508C324.529 46.26 324.449 46.908 324.289 47.452C324.129 47.996 323.857 48.416 323.473 48.712C323.097 49.008 322.577 49.156 321.913 49.156ZM321.913 48.292C322.217 48.292 322.469 48.256 322.669 48.184C322.877 48.112 323.041 47.98 323.161 47.788C323.289 47.596 323.377 47.316 323.425 46.948C323.481 46.58 323.509 46.1 323.509 45.508C323.509 44.916 323.481 44.436 323.425 44.068C323.377 43.7 323.289 43.42 323.161 43.228C323.041 43.028 322.877 42.896 322.669 42.832C322.469 42.76 322.217 42.724 321.913 42.724C321.609 42.724 321.353 42.76 321.145 42.832C320.945 42.896 320.781 43.028 320.653 43.228C320.533 43.42 320.445 43.7 320.389 44.068C320.333 44.436 320.305 44.916 320.305 45.508C320.305 46.1 320.333 46.58 320.389 46.948C320.445 47.316 320.533 47.596 320.653 47.788C320.781 47.98 320.945 48.112 321.145 48.184C321.353 48.256 321.609 48.292 321.913 48.292ZM328.323 49V39.964H329.319V49H328.323ZM333.542 49V39.964H334.538V49H333.542ZM341.137 49.168C340.585 49.168 340.097 49.052 339.673 48.82C339.257 48.58 338.933 48.192 338.701 47.656C338.469 47.112 338.353 46.392 338.353 45.496C338.353 44.56 338.473 43.828 338.713 43.3C338.961 42.772 339.293 42.4 339.709 42.184C340.125 41.96 340.593 41.848 341.113 41.848C341.633 41.848 342.073 41.952 342.433 42.16C342.801 42.368 343.081 42.716 343.273 43.204C343.465 43.684 343.561 44.332 343.561 45.148V45.904H338.953L339.421 45.724C339.389 46.252 339.401 46.676 339.457 46.996C339.521 47.308 339.597 47.54 339.685 47.692C339.781 47.844 339.861 47.952 339.925 48.016C340.037 48.112 340.173 48.184 340.333 48.232C340.493 48.28 340.689 48.304 340.921 48.304C341.153 48.304 341.381 48.288 341.605 48.256C341.829 48.216 342.037 48.172 342.229 48.124C342.421 48.068 342.593 48.016 342.745 47.968C342.897 47.912 343.021 47.872 343.117 47.848L343.369 48.652C343.297 48.684 343.157 48.744 342.949 48.832C342.741 48.912 342.481 48.988 342.169 49.06C341.865 49.132 341.521 49.168 341.137 49.168ZM339.421 45.544L338.953 45.112L342.997 45.028L342.541 45.472C342.549 44.904 342.537 44.416 342.505 44.008C342.481 43.6 342.401 43.288 342.265 43.072C342.209 42.984 342.113 42.904 341.977 42.832C341.841 42.752 341.577 42.712 341.185 42.712C340.777 42.712 340.469 42.756 340.261 42.844C340.061 42.932 339.905 43.048 339.793 43.192C339.497 43.584 339.373 44.368 339.421 45.544ZM349.625 49.156C349.081 49.156 348.601 49.032 348.185 48.784C347.769 48.536 347.445 48.144 347.213 47.608C346.981 47.064 346.865 46.356 346.865 45.484C346.865 44.772 346.941 44.18 347.093 43.708C347.253 43.236 347.469 42.868 347.741 42.604C348.013 42.332 348.333 42.14 348.701 42.028C349.069 41.916 349.461 41.86 349.877 41.86C350.181 41.86 350.489 41.88 350.801 41.92C351.121 41.96 351.381 42.004 351.581 42.052L351.461 42.892C351.309 42.876 351.069 42.848 350.741 42.808C350.413 42.76 350.061 42.736 349.685 42.736C349.389 42.736 349.137 42.76 348.929 42.808C348.729 42.856 348.573 42.936 348.461 43.048C348.309 43.216 348.177 43.524 348.065 43.972C347.961 44.412 347.909 44.94 347.909 45.556C347.909 46.124 347.953 46.584 348.041 46.936C348.129 47.28 348.233 47.544 348.353 47.728C348.473 47.904 348.581 48.028 348.677 48.1C348.741 48.148 348.825 48.192 348.929 48.232C349.041 48.272 349.197 48.292 349.397 48.292C349.629 48.292 349.865 48.264 350.105 48.208C350.345 48.152 350.565 48.088 350.765 48.016C350.965 47.944 351.125 47.88 351.245 47.824C351.373 47.768 351.437 47.74 351.437 47.74L351.749 48.52C351.749 48.52 351.661 48.572 351.485 48.676C351.309 48.78 351.061 48.888 350.741 49C350.421 49.104 350.049 49.156 349.625 49.156ZM356.952 49.168C356.608 49.168 356.308 49.112 356.052 49C355.796 48.88 355.596 48.656 355.452 48.328C355.316 47.992 355.248 47.496 355.248 46.84V43.204H354.456V42.58L355.284 42.412L355.548 40.78H356.244V42.424H357.636V43.228H356.244V46.912C356.244 47.352 356.256 47.672 356.28 47.872C356.304 48.072 356.364 48.2 356.46 48.256C356.564 48.304 356.736 48.328 356.976 48.328C357.104 48.328 357.216 48.328 357.312 48.328C357.408 48.32 357.484 48.316 357.54 48.316C357.596 48.308 357.624 48.304 357.624 48.304V49.108C357.624 49.108 357.564 49.116 357.444 49.132C357.324 49.156 357.16 49.168 356.952 49.168ZM361.239 49V42.016H362.235V49H361.239ZM361.131 40.828V39.808H362.355V40.828H361.131ZM367.382 49L365.354 42.016H366.422L367.994 48.148H368.066L369.626 42.016H370.694L368.678 49H367.382ZM376.197 49.168C375.645 49.168 375.157 49.052 374.733 48.82C374.317 48.58 373.993 48.192 373.761 47.656C373.529 47.112 373.413 46.392 373.413 45.496C373.413 44.56 373.533 43.828 373.773 43.3C374.021 42.772 374.353 42.4 374.769 42.184C375.185 41.96 375.653 41.848 376.173 41.848C376.693 41.848 377.133 41.952 377.493 42.16C377.861 42.368 378.141 42.716 378.333 43.204C378.525 43.684 378.621 44.332 378.621 45.148V45.904H374.013L374.481 45.724C374.449 46.252 374.461 46.676 374.517 46.996C374.581 47.308 374.657 47.54 374.745 47.692C374.841 47.844 374.921 47.952 374.985 48.016C375.097 48.112 375.233 48.184 375.393 48.232C375.553 48.28 375.749 48.304 375.981 48.304C376.213 48.304 376.441 48.288 376.665 48.256C376.889 48.216 377.097 48.172 377.289 48.124C377.481 48.068 377.653 48.016 377.805 47.968C377.957 47.912 378.081 47.872 378.177 47.848L378.429 48.652C378.357 48.684 378.217 48.744 378.009 48.832C377.801 48.912 377.541 48.988 377.229 49.06C376.925 49.132 376.581 49.168 376.197 49.168ZM374.481 45.544L374.013 45.112L378.057 45.028L377.601 45.472C377.609 44.904 377.597 44.416 377.565 44.008C377.541 43.6 377.461 43.288 377.325 43.072C377.269 42.984 377.173 42.904 377.037 42.832C376.901 42.752 376.637 42.712 376.245 42.712C375.837 42.712 375.529 42.756 375.321 42.844C375.121 42.932 374.965 43.048 374.853 43.192C374.557 43.584 374.433 44.368 374.481 45.544Z" fill="#B36A26"/>
</svg>
