<svg id="Calque_1" data-name="Calque 1" xmlns="http://www.w3.org/2000/svg" viewBox="0 0 400 49"><defs><style>.cls-1{fill:#463f3a;}.cls-2{fill:#b26927;}</style></defs><path class="cls-1" d="M25.34,24.83V3.11h9.53v2H27.68V12.8h5.85v2H27.68v8H35.2v2Z"/><path class="cls-1" d="M49.47,24.83V3.11h3.27l4.08,14.67,4-14.67h3.28V24.83H61.8v-18l-3.91,14H55.72l-3.91-14v18Z"/><path class="cls-1" d="M80.08,24.83V3.11h3.27l4.08,14.67,4-14.67h3.27V24.83H92.41v-18l-3.91,14H86.32l-3.91-14v18Z"/><path class="cls-1" d="M117.1,3.11,122,24.83h-2.34l-1.14-5h-6.38l-1.13,5h-2.34l4.91-21.72Zm-4.51,14.7h5.48L115.33,5.72Z"/><path class="cls-1" d="M135.94,24.83V3.11h2.24l7.35,16.71V3.11h2.34V24.83h-2.24L138.28,8.12V24.83Z"/><path class="cls-1" d="M172.5,3.11h2.34V20.65a4.42,4.42,0,0,1-1.39,3.43,6.21,6.21,0,0,1-4.26,1.25,6.33,6.33,0,0,1-4.29-1.25,4.34,4.34,0,0,1-1.42-3.43V3.11h2.34V20.65a2.44,2.44,0,0,0,.83,2,3.81,3.81,0,0,0,2.54.72,3.7,3.7,0,0,0,2.49-.72,2.46,2.46,0,0,0,.82-2Z"/><path class="cls-1" d="M190.44,24.83V3.11H200v2h-7.18V12.8h5.85v2h-5.85v8h7.52v2Z"/><path class="cls-1" d="M214.57,3.11h2.34V22.83H223v2h-8.45Z"/><path class="cls-1" d="M258.27,3.11a5.63,5.63,0,0,1,4,1.25,4.51,4.51,0,0,1,1.32,3.43v2a3.44,3.44,0,0,1-2.37,3.65,3.44,3.44,0,0,1,2.71,3.71v3a4.57,4.57,0,0,1-1.3,3.43,5.63,5.63,0,0,1-4,1.25h-5.38V3.11Zm3,4.68A2.71,2.71,0,0,0,260.49,6a2.79,2.79,0,0,0-2.22-.85h-2.71v7.51h2.71a2.7,2.7,0,0,0,2.24-.91,3.06,3.06,0,0,0,.73-1.93Zm.34,9.36a3,3,0,0,0-.75-1.91,2.68,2.68,0,0,0-2.22-.93h-3.05v8.52h3.05a2.8,2.8,0,0,0,2.23-.84,2.74,2.74,0,0,0,.74-1.84Z"/><path class="cls-1" d="M279.36,24.83V3.11h5a5.63,5.63,0,0,1,4,1.25,4.51,4.51,0,0,1,1.32,3.43v4.68a4.88,4.88,0,0,1-.73,2.75,4,4,0,0,1-2.21,1.59l4.11,8h-2.57l-3.91-7.68h-2.71v7.68Zm8-17a2.6,2.6,0,0,0-.75-2,3.13,3.13,0,0,0-2.22-.71h-2.71v10h2.71a3.09,3.09,0,0,0,2.24-.72,2.6,2.6,0,0,0,.73-1.95Z"/><path class="cls-1" d="M313.5,3.11h2.34V20.65a4.41,4.41,0,0,1-1.38,3.43,6.25,6.25,0,0,1-4.26,1.25,6.38,6.38,0,0,1-4.3-1.25,4.37,4.37,0,0,1-1.42-3.43V3.11h2.34V20.65a2.44,2.44,0,0,0,.84,2,3.79,3.79,0,0,0,2.54.72,3.7,3.7,0,0,0,2.49-.72,2.48,2.48,0,0,0,.81-2Z"/><path class="cls-1" d="M337.86,3.11l4.91,21.72h-2.33l-1.14-5h-6.38l-1.14,5h-2.34l4.91-21.72Zm-4.51,14.7h5.48L336.09,5.72Z"/><path class="cls-1" d="M365.63,16.11A5.9,5.9,0,0,1,367,18.18a7.38,7.38,0,0,1,.35,2.47A4.48,4.48,0,0,1,366,24.08a8,8,0,0,1-8.61,0A4.46,4.46,0,0,1,356,20.65V17.81h2.34v3a2.31,2.31,0,0,0,.82,1.84,4.78,4.78,0,0,0,5,0,2.33,2.33,0,0,0,.81-1.84,6.18,6.18,0,0,0-.21-1.74,3.75,3.75,0,0,0-1.06-1.5l-5.88-5.75a6.35,6.35,0,0,1-1.42-2.07A7,7,0,0,1,356,7.29a4.44,4.44,0,0,1,1.37-3.43,6.1,6.1,0,0,1,4.21-1.25,5.72,5.72,0,0,1,4.09,1.25A4.57,4.57,0,0,1,367,7.29v2.84h-2.34v-3a2.36,2.36,0,0,0-.77-1.85,4.42,4.42,0,0,0-4.74,0,2.33,2.33,0,0,0-.77,1.85,5.76,5.76,0,0,0,.22,1.74,3.43,3.43,0,0,0,1,1.47Z"/><path class="cls-2" d="M3.08,45.71V36.84H4.15l0,4.24-.48-.36h4.7l-.49.36,0-4.24H8.89v8.87H7.82l0-4.4.49.36H3.63l.48-.36,0,4.4Z"/><path class="cls-2" d="M14.7,45.88a2,2,0,0,1-1-.27A1.94,1.94,0,0,1,13,44.8a2.92,2.92,0,0,1-.26-1.28,2.48,2.48,0,0,1,.37-1.43,1.92,1.92,0,0,1,1-.73,5.06,5.06,0,0,1,1.54-.22H17c0-.42,0-.8,0-1.11a1.27,1.27,0,0,0-.21-.71.54.54,0,0,0-.35-.23,1.75,1.75,0,0,0-.46-.05,5.25,5.25,0,0,0-1,.09c-.32.07-.61.14-.87.22l-.85.32-.37-.83c.32-.14.62-.26.89-.36a8.56,8.56,0,0,1,.92-.26,5,5,0,0,1,1-.1,2.52,2.52,0,0,1,1.38.33,1.93,1.93,0,0,1,.73.95,4.06,4.06,0,0,1,.23,1.42v4.89h-.69l-.16-.77h-.07l-.37.24a4,4,0,0,1-.55.32,3.54,3.54,0,0,1-.69.27A3.12,3.12,0,0,1,14.7,45.88Zm.18-.93a2.78,2.78,0,0,0,.87-.14,4.74,4.74,0,0,0,.74-.3l.5-.26V42.13l-.5-.06q-.33,0-.87,0a2.72,2.72,0,0,0-1.47.24.77.77,0,0,0-.25.45,3,3,0,0,0-.09.79,1.93,1.93,0,0,0,.24,1.09A1,1,0,0,0,14.88,45Z"/><path class="cls-2" d="M24.94,45.88a5.89,5.89,0,0,1-.85-.07l-1-.18a6.06,6.06,0,0,1-.88-.24V36.1h1.06v2.3l.52-.12.67-.11a4.48,4.48,0,0,1,.73-.05,2,2,0,0,1,1.73.88,5.29,5.29,0,0,1,.6,2.87,7.45,7.45,0,0,1-.22,2,3,3,0,0,1-.59,1.22,2.05,2.05,0,0,1-.82.61A2.74,2.74,0,0,1,24.94,45.88Zm0-.94a2.47,2.47,0,0,0,.54,0,.68.68,0,0,0,.33-.16,1.4,1.4,0,0,0,.25-.41,3,3,0,0,0,.24-.92,12.66,12.66,0,0,0,.1-1.73A10,10,0,0,0,26.29,40a1.21,1.21,0,0,0-.3-.72,1.5,1.5,0,0,0-.91-.21,4.1,4.1,0,0,0-1.12.13,6.77,6.77,0,0,0-.7.22v5.32a3.17,3.17,0,0,0,.37.08l.55.09C24.4,44.92,24.65,44.94,24.94,44.94Z"/><path class="cls-2" d="M31.41,37V35.93h1.31V37Zm.12,8.69V38.28h1.06v7.43Z"/><path class="cls-2" d="M39,45.89a2.35,2.35,0,0,1-1-.18,1.3,1.3,0,0,1-.63-.72,4.22,4.22,0,0,1-.22-1.57V39.55h-.85v-.67l.88-.18L37.45,37h.75v1.75h1.48v.85H38.2v3.92q0,.7,0,1a.53.53,0,0,0,.2.41A1.39,1.39,0,0,0,39,45h.36l.33,0v.86A4.53,4.53,0,0,1,39,45.89Z"/><path class="cls-2" d="M44.84,45.88a2,2,0,0,1-1-.27,1.87,1.87,0,0,1-.71-.81,2.92,2.92,0,0,1-.26-1.28,2.48,2.48,0,0,1,.36-1.43,2,2,0,0,1,1-.73,5.17,5.17,0,0,1,1.55-.22h1.35c0-.42,0-.8,0-1.11a1.27,1.27,0,0,0-.21-.71.56.56,0,0,0-.35-.23,1.83,1.83,0,0,0-.47-.05,5.33,5.33,0,0,0-1,.09c-.31.07-.6.14-.86.22l-.85.32L43,38.84c.32-.14.62-.26.89-.36a8.35,8.35,0,0,1,.91-.26,5.16,5.16,0,0,1,1-.1,2.52,2.52,0,0,1,1.38.33,2,2,0,0,1,.74.95,4.07,4.07,0,0,1,.22,1.42v4.89h-.69l-.15-.77h-.08l-.36.24a4,4,0,0,1-.55.32,3.4,3.4,0,0,1-.7.27A3,3,0,0,1,44.84,45.88ZM45,45a2.84,2.84,0,0,0,.88-.14,5.17,5.17,0,0,0,.74-.3l.49-.26V42.13l-.5-.06c-.22,0-.51,0-.86,0a2.68,2.68,0,0,0-1.47.24.84.84,0,0,0-.26.45,3,3,0,0,0-.09.79,1.85,1.85,0,0,0,.25,1.09A1,1,0,0,0,45,45Z"/><path class="cls-2" d="M54.41,45.89a2.33,2.33,0,0,1-.95-.18,1.28,1.28,0,0,1-.64-.72,4.22,4.22,0,0,1-.22-1.57V39.55h-.84v-.67l.88-.18L52.92,37h.74v1.75h1.48v.85H53.66v3.92a8.34,8.34,0,0,0,0,1,.48.48,0,0,0,.2.41,1.32,1.32,0,0,0,.54.08h.36l.33,0v.86A4.76,4.76,0,0,1,54.41,45.89Z"/><path class="cls-2" d="M65.69,45.88a1.94,1.94,0,0,1-1.22-.4,2.57,2.57,0,0,1-.83-1.22,6.31,6.31,0,0,1-.3-2.12,7.61,7.61,0,0,1,.22-2,3,3,0,0,1,.61-1.21,2,2,0,0,1,.85-.61,2.63,2.63,0,0,1,1-.17,4.1,4.1,0,0,1,.74.05,5.05,5.05,0,0,1,.56.11,2.74,2.74,0,0,1,.38.13V36.1h1.06v9.61H68L67.87,45h-.06l-.46.35a3.39,3.39,0,0,1-.71.4A2.37,2.37,0,0,1,65.69,45.88Zm.06-.94a2.49,2.49,0,0,0,.53-.07l.53-.18.48-.21.37-.21V39.39l-.43-.14c-.19,0-.39-.09-.62-.13a4.23,4.23,0,0,0-.73-.06,1.2,1.2,0,0,0-1,.31,1.64,1.64,0,0,0-.21.44,4.93,4.93,0,0,0-.18.88,12.13,12.13,0,0,0-.07,1.5,8.66,8.66,0,0,0,.11,1.58,1.93,1.93,0,0,0,.25.74,1.25,1.25,0,0,0,.21.27.59.59,0,0,0,.3.12A2.74,2.74,0,0,0,65.75,44.94Z"/><path class="cls-2" d="M74.63,45.88a1.79,1.79,0,0,1-.94-.25,1.66,1.66,0,0,1-.68-.82,4.23,4.23,0,0,1-.25-1.59V38.28h1.06v4.55c0,.47,0,.85,0,1.15a1.66,1.66,0,0,0,.14.62.49.49,0,0,0,.29.21,1.53,1.53,0,0,0,.45.06,3.09,3.09,0,0,0,1.15-.22c.37-.15.73-.3,1.06-.46V38.28H78v7.43H77.3L77.17,45h-.08l-.57.31a7.08,7.08,0,0,1-.87.39A2.92,2.92,0,0,1,74.63,45.88Z"/><path class="cls-2" d="M82.37,45.71V38.28H83l.14.76h.08a7.53,7.53,0,0,1,.71-.46,5.42,5.42,0,0,1,.69-.32,1.76,1.76,0,0,1,.68-.14,3.05,3.05,0,0,1,.52.06l-.08,1c-.23,0-.38,0-.48,0a2.55,2.55,0,0,0-.72.1,4.05,4.05,0,0,0-.67.25,2.7,2.7,0,0,0-.48.3v5.88Z"/><path class="cls-2" d="M90.4,45.88a2,2,0,0,1-1-.27,1.87,1.87,0,0,1-.71-.81,2.92,2.92,0,0,1-.26-1.28,2.4,2.4,0,0,1,.37-1.43,1.93,1.93,0,0,1,1-.73,5.17,5.17,0,0,1,1.55-.22h1.35c0-.42,0-.8,0-1.11a1.27,1.27,0,0,0-.21-.71.54.54,0,0,0-.35-.23,1.78,1.78,0,0,0-.47-.05,5.23,5.23,0,0,0-1,.09c-.32.07-.61.14-.87.22l-.85.32-.37-.83c.32-.14.62-.26.89-.36a8.56,8.56,0,0,1,.92-.26,5,5,0,0,1,1-.1,2.52,2.52,0,0,1,1.38.33,1.93,1.93,0,0,1,.73.95,4.07,4.07,0,0,1,.22,1.42v4.89h-.69l-.15-.77h-.08l-.36.24a4,4,0,0,1-.55.32,3.4,3.4,0,0,1-.7.27A3,3,0,0,1,90.4,45.88Zm.18-.93a2.83,2.83,0,0,0,.87-.14,5.17,5.17,0,0,0,.74-.3l.49-.26V42.13l-.49-.06q-.34,0-.87,0a2.72,2.72,0,0,0-1.47.24.84.84,0,0,0-.26.45,3,3,0,0,0-.09.79,1.92,1.92,0,0,0,.25,1.09A1,1,0,0,0,90.58,45Z"/><path class="cls-2" d="M100.64,45.88a5.89,5.89,0,0,1-.85-.07l-1-.18a6.43,6.43,0,0,1-.88-.24V36.1H99v2.3l.53-.12c.2,0,.42-.08.67-.11a4.4,4.4,0,0,1,.73-.05,2,2,0,0,1,1.73.88,5.29,5.29,0,0,1,.6,2.87,7.88,7.88,0,0,1-.22,2,3.16,3.16,0,0,1-.59,1.22,2.12,2.12,0,0,1-.82.61A2.74,2.74,0,0,1,100.64,45.88Zm0-.94a2.47,2.47,0,0,0,.54,0,.73.73,0,0,0,.33-.16,1.65,1.65,0,0,0,.25-.41,3,3,0,0,0,.24-.92,12.94,12.94,0,0,0,.09-1.73A10.18,10.18,0,0,0,102,40a1.36,1.36,0,0,0-.3-.72,1.52,1.52,0,0,0-.91-.21,4.1,4.1,0,0,0-1.12.13,7.12,7.12,0,0,0-.71.22v5.32l.37.08.56.09C100.1,44.92,100.35,44.94,100.64,44.94Z"/><path class="cls-2" d="M107.23,45.71V36.1h1.06v9.61Z"/><path class="cls-2" d="M115.3,45.89a3.09,3.09,0,0,1-1.55-.37,2.44,2.44,0,0,1-1-1.24,5.86,5.86,0,0,1-.37-2.29,5.68,5.68,0,0,1,.39-2.34,2.46,2.46,0,0,1,1-1.2,3.18,3.18,0,0,1,1.49-.35,2.68,2.68,0,0,1,1.41.34,2.08,2.08,0,0,1,.89,1.1,5.66,5.66,0,0,1,.31,2.08v.8H113l.5-.19a5.57,5.57,0,0,0,0,1.35,2.2,2.2,0,0,0,.24.74,2.16,2.16,0,0,0,.25.35,1.18,1.18,0,0,0,.43.23,2.28,2.28,0,0,0,.63.07,5.84,5.84,0,0,0,.73,0l.66-.14c.2-.06.39-.11.55-.17a2.4,2.4,0,0,1,.4-.12l.26.85-.44.19a6,6,0,0,1-.83.25A5.18,5.18,0,0,1,115.3,45.89ZM113.47,42l-.5-.46,4.31-.09-.49.47q0-.9,0-1.56a2.22,2.22,0,0,0-.26-1,.85.85,0,0,0-.31-.27,1.93,1.93,0,0,0-.84-.12,2.71,2.71,0,0,0-1,.14,1.39,1.39,0,0,0-.5.37A4.22,4.22,0,0,0,113.47,42Z"/><path class="cls-2" d="M125.91,42v-.89h2.92V42Z"/><path class="cls-2" d="M138.53,45.71l0-8-2.49,0v-.94h6v.94l-2.49,0,0,8Z"/><path class="cls-2" d="M144.73,45.71V38.28h.68l.14.76h.08a7.53,7.53,0,0,1,.71-.46,4.72,4.72,0,0,1,.68-.32,1.81,1.81,0,0,1,.69-.14,3.05,3.05,0,0,1,.52.06l-.09,1c-.22,0-.38,0-.47,0a2.55,2.55,0,0,0-.72.1,4.05,4.05,0,0,0-.67.25,2.84,2.84,0,0,0-.49.3v5.88Z"/><path class="cls-2" d="M152.76,45.88a2,2,0,0,1-1-.27,1.92,1.92,0,0,1-.7-.81,2.78,2.78,0,0,1-.26-1.28,2.48,2.48,0,0,1,.36-1.43,2,2,0,0,1,1-.73,5.13,5.13,0,0,1,1.55-.22h1.35c0-.42,0-.8,0-1.11a1.27,1.27,0,0,0-.21-.71.56.56,0,0,0-.35-.23A1.83,1.83,0,0,0,154,39a5.33,5.33,0,0,0-1,.09c-.32.07-.61.14-.86.22l-.85.32-.37-.83c.32-.14.62-.26.89-.36a8.35,8.35,0,0,1,.91-.26,5.16,5.16,0,0,1,1-.1,2.52,2.52,0,0,1,1.38.33,2,2,0,0,1,.74.95,4.07,4.07,0,0,1,.22,1.42v4.89h-.69l-.15-.77h-.08l-.36.24a4,4,0,0,1-.55.32,3.4,3.4,0,0,1-.7.27A3.07,3.07,0,0,1,152.76,45.88Zm.18-.93a2.84,2.84,0,0,0,.88-.14,5.69,5.69,0,0,0,.74-.3l.49-.26V42.13l-.5-.06q-.33,0-.87,0a2.66,2.66,0,0,0-1.46.24.78.78,0,0,0-.26.45,3,3,0,0,0-.09.79,1.85,1.85,0,0,0,.25,1.09A1,1,0,0,0,152.94,45Z"/><path class="cls-2" d="M160.4,45.71V38.28h.72l.11.73h.06l.39-.21c.18-.1.39-.2.64-.31a7.29,7.29,0,0,1,.79-.27,3.44,3.44,0,0,1,.84-.1,1.45,1.45,0,0,1,1.07.35,1.79,1.79,0,0,1,.51,1,6.19,6.19,0,0,1,.13,1.35v4.94H164.6V41.14c0-.5,0-.88,0-1.15a1.3,1.3,0,0,0-.17-.6.47.47,0,0,0-.29-.21,1.4,1.4,0,0,0-.41,0,3.11,3.11,0,0,0-.94.14,7.19,7.19,0,0,0-.84.31l-.47.22v5.91Z"/><path class="cls-2" d="M171.69,45.88a3.85,3.85,0,0,1-.91-.1,6.22,6.22,0,0,1-.78-.21c-.23-.08-.47-.18-.74-.3l.27-.91c.26.12.51.22.73.3a5.7,5.7,0,0,0,.75.21,4.14,4.14,0,0,0,.87.09,2.29,2.29,0,0,0,.47,0,.81.81,0,0,0,.35-.16,1.19,1.19,0,0,0,.25-.39,1.41,1.41,0,0,0,.12-.61,1.19,1.19,0,0,0-.26-.82,1.72,1.72,0,0,0-.66-.43,8.9,8.9,0,0,0-.87-.28l-.73-.23a2.33,2.33,0,0,1-.64-.35,1.49,1.49,0,0,1-.46-.58,2.11,2.11,0,0,1-.17-.94,2,2,0,0,1,.55-1.46,2.58,2.58,0,0,1,1.87-.55,8,8,0,0,1,.86.05c.27,0,.51.08.72.13l.47.12-.17.9a6.24,6.24,0,0,0-.64-.14l-.66-.1a6.57,6.57,0,0,0-.78,0,3.49,3.49,0,0,0-.62,0,.83.83,0,0,0-.34.13.64.64,0,0,0-.19.29,1.32,1.32,0,0,0-.08.47,1,1,0,0,0,.3.8,2,2,0,0,0,.77.41l1,.29a5.4,5.4,0,0,1,.67.25,2.11,2.11,0,0,1,.58.37,1.6,1.6,0,0,1,.41.59,2.46,2.46,0,0,1,.14.88,2.3,2.3,0,0,1-.62,1.68A2.36,2.36,0,0,1,171.69,45.88Z"/><path class="cls-2" d="M177.86,37V35.93h1.3V37Zm.11,8.69V38.28H179v7.43Z"/><path class="cls-2" d="M185.39,45.89a2.38,2.38,0,0,1-1-.18,1.3,1.3,0,0,1-.63-.72,4.22,4.22,0,0,1-.22-1.57V39.55h-.85v-.67l.89-.18L183.9,37h.74v1.75h1.48v.85h-1.48v3.92a8.34,8.34,0,0,0,0,1,.5.5,0,0,0,.19.41,1.41,1.41,0,0,0,.55.08h.35l.34,0v.86A4.76,4.76,0,0,1,185.39,45.89Z"/><path class="cls-2" d="M189.82,37V35.93h1.3V37Zm.12,8.69V38.28H191v7.43Z"/><path class="cls-2" d="M197.8,45.88a2.66,2.66,0,0,1-1.66-.47,2.54,2.54,0,0,1-.87-1.34,8.69,8.69,0,0,1,0-4.14,2.5,2.5,0,0,1,.87-1.34,3.18,3.18,0,0,1,3.33,0,2.55,2.55,0,0,1,.86,1.34,8.37,8.37,0,0,1,0,4.14,2.59,2.59,0,0,1-.86,1.34A2.67,2.67,0,0,1,197.8,45.88Zm0-.92a2.59,2.59,0,0,0,.81-.11,1,1,0,0,0,.53-.43,2.33,2.33,0,0,0,.28-.89,14.67,14.67,0,0,0,0-3.06,2.33,2.33,0,0,0-.28-.9,1,1,0,0,0-.53-.43,2.63,2.63,0,0,0-.81-.1,2.71,2.71,0,0,0-.81.1,1,1,0,0,0-.52.43,2.31,2.31,0,0,0-.29.9,13,13,0,0,0,0,3.06,2.32,2.32,0,0,0,.29.89,1,1,0,0,0,.52.43A2.69,2.69,0,0,0,197.8,45Z"/><path class="cls-2" d="M204.55,45.71V38.28h.71l.12.73h.06l.38-.21c.18-.1.39-.2.64-.31a8.12,8.12,0,0,1,.79-.27,3.47,3.47,0,0,1,.85-.1,1.49,1.49,0,0,1,1.07.35,1.85,1.85,0,0,1,.5,1,6.15,6.15,0,0,1,.14,1.35v4.94h-1.06V41.14c0-.5,0-.88,0-1.15a1.3,1.3,0,0,0-.16-.6.47.47,0,0,0-.3-.21,1.36,1.36,0,0,0-.41,0,3.15,3.15,0,0,0-.94.14,7,7,0,0,0-.83.31l-.47.22v5.91Z"/><path class="cls-2" d="M218.13,42v-.89h2.93V42Z"/><path class="cls-2" d="M229.6,45.73l0-4.08,0-4.81h1.08l-.05,3.92.05,5Z"/><path class="cls-2" d="M235.09,45.71V38.28h.72l.11.73H236l.39-.21c.18-.1.39-.2.64-.31a7.29,7.29,0,0,1,.79-.27,3.44,3.44,0,0,1,.84-.1,1.45,1.45,0,0,1,1.07.35,1.79,1.79,0,0,1,.51,1,6.19,6.19,0,0,1,.13,1.35v4.94h-1.06V41.14c0-.5,0-.88,0-1.15a1.3,1.3,0,0,0-.17-.6.47.47,0,0,0-.29-.21,1.4,1.4,0,0,0-.41,0,3.11,3.11,0,0,0-.94.14,7.19,7.19,0,0,0-.84.31l-.47.22v5.91Z"/><path class="cls-2" d="M246.48,45.89a2.38,2.38,0,0,1-1-.18,1.3,1.3,0,0,1-.63-.72,4.22,4.22,0,0,1-.22-1.57V39.55h-.85v-.67l.89-.18L245,37h.74v1.75h1.48v.85h-1.48v3.92a8.34,8.34,0,0,0,0,1,.5.5,0,0,0,.19.41,1.41,1.41,0,0,0,.55.08h.35l.34,0v.86A4.76,4.76,0,0,1,246.48,45.89Z"/><path class="cls-2" d="M253.56,45.89a3.16,3.16,0,0,1-1.56-.37,2.54,2.54,0,0,1-1-1.24,6,6,0,0,1-.37-2.29,5.68,5.68,0,0,1,.39-2.34,2.47,2.47,0,0,1,1.06-1.2,3.18,3.18,0,0,1,1.49-.35,2.73,2.73,0,0,1,1.41.34,2.12,2.12,0,0,1,.89,1.1,5.91,5.91,0,0,1,.3,2.08v.8h-4.9l.5-.19a6.23,6.23,0,0,0,0,1.35,2.42,2.42,0,0,0,.25.74,1.68,1.68,0,0,0,.25.35,1.11,1.11,0,0,0,.43.23,2.28,2.28,0,0,0,.63.07,5.68,5.68,0,0,0,.72,0c.24,0,.46-.09.67-.14l.55-.17a2.66,2.66,0,0,1,.39-.12l.27.85-.45.19a5.84,5.84,0,0,1-.82.25A5.32,5.32,0,0,1,253.56,45.89ZM251.73,42l-.5-.46,4.3-.09-.48.47q0-.9,0-1.56a2.22,2.22,0,0,0-.26-1,.94.94,0,0,0-.31-.27,2,2,0,0,0-.84-.12,2.68,2.68,0,0,0-1,.14,1.23,1.23,0,0,0-.5.37A4.22,4.22,0,0,0,251.73,42Z"/><path class="cls-2" d="M260.09,45.71V36.1h1.06v9.61Z"/><path class="cls-2" d="M265.64,45.71V36.1h1.06v9.61Z"/><path class="cls-2" d="M271.06,37V35.93h1.31V37Zm.12,8.69V38.28h1.06v7.43Z"/><path class="cls-2" d="M278.6,48a9.61,9.61,0,0,1-1,0l-.78-.12-.71-.17.12-1c.48.08,1,.16,1.47.22a12.36,12.36,0,0,0,1.46.1,2.47,2.47,0,0,0,.95-.12.36.36,0,0,0,.25-.36.45.45,0,0,0-.07-.25.73.73,0,0,0-.23-.24,3.15,3.15,0,0,0-.48-.27l-.84-.37L277.72,45l-.41-.18c-.05,0-.08-.06-.08-.08a1.56,1.56,0,0,1,.06-.18c0-.1.1-.23.17-.39s.14-.31.2-.48l.18-.42a2.27,2.27,0,0,1-1.36-.82,2.47,2.47,0,0,1-.51-1.58,2.86,2.86,0,0,1,.4-1.64,2.26,2.26,0,0,1,1.08-.83,4.05,4.05,0,0,1,1.45-.25h.61l.71,0,.68,0,.7.05V39l-.84.12.1.27a4.38,4.38,0,0,1,.22.67,3.13,3.13,0,0,1,.11.79,2.6,2.6,0,0,1-.32,1.29,2.28,2.28,0,0,1-.92.9,3,3,0,0,1-1.44.32q0,.21-.09.48a1.92,1.92,0,0,0-.05.33s0,0,.08.07l.33.14c.17.06.41.17.74.31a6,6,0,0,1,1.13.6,1.83,1.83,0,0,1,.55.58,1.16,1.16,0,0,1,.16.56,1.19,1.19,0,0,1-.36.87,2.13,2.13,0,0,1-1,.56A4.76,4.76,0,0,1,278.6,48Zm0-5.61a2.46,2.46,0,0,0,.93-.14.91.91,0,0,0,.51-.49,2.54,2.54,0,0,0,.16-1,6.17,6.17,0,0,0-.09-1.17c-.06-.29-.12-.45-.17-.47a.43.43,0,0,0-.21-.05l-.43,0h-.57a2.71,2.71,0,0,0-1,.14,1,1,0,0,0-.55.51,2.73,2.73,0,0,0-.17,1.08,1.78,1.78,0,0,0,.36,1.29A1.8,1.8,0,0,0,278.57,42.39Z"/><path class="cls-2" d="M287.68,45.89a3.16,3.16,0,0,1-1.56-.37,2.54,2.54,0,0,1-1-1.24,6,6,0,0,1-.37-2.29,5.68,5.68,0,0,1,.39-2.34,2.47,2.47,0,0,1,1.06-1.2,3.18,3.18,0,0,1,1.49-.35,2.73,2.73,0,0,1,1.41.34,2.12,2.12,0,0,1,.89,1.1,5.88,5.88,0,0,1,.31,2.08v.8h-4.91l.5-.19a6.23,6.23,0,0,0,0,1.35,2.42,2.42,0,0,0,.25.74,1.68,1.68,0,0,0,.25.35,1.18,1.18,0,0,0,.43.23,2.28,2.28,0,0,0,.63.07,5.68,5.68,0,0,0,.72,0c.24,0,.46-.09.67-.14s.39-.11.55-.17a2.66,2.66,0,0,1,.39-.12l.27.85-.45.19a5.84,5.84,0,0,1-.82.25A5.32,5.32,0,0,1,287.68,45.89ZM285.85,42l-.5-.46,4.31-.09-.49.47q0-.9,0-1.56a2.22,2.22,0,0,0-.26-1,.94.94,0,0,0-.31-.27,2,2,0,0,0-.84-.12,2.68,2.68,0,0,0-1,.14,1.31,1.31,0,0,0-.5.37A4.22,4.22,0,0,0,285.85,42Z"/><path class="cls-2" d="M294.15,45.71V38.28h.72L295,39H295l.39-.21c.18-.1.39-.2.64-.31a7.29,7.29,0,0,1,.79-.27,3.44,3.44,0,0,1,.84-.1,1.45,1.45,0,0,1,1.07.35,1.79,1.79,0,0,1,.51,1,6.19,6.19,0,0,1,.13,1.35v4.94h-1.06V41.14c0-.5,0-.88,0-1.15a1.3,1.3,0,0,0-.17-.6.47.47,0,0,0-.29-.21,1.4,1.4,0,0,0-.41,0,3.11,3.11,0,0,0-.94.14,7.19,7.19,0,0,0-.84.31l-.47.22v5.91Z"/><path class="cls-2" d="M306.14,45.88a2.86,2.86,0,0,1-1.53-.4,2.62,2.62,0,0,1-1-1.25A6,6,0,0,1,303.2,42a6.36,6.36,0,0,1,.25-1.89,3,3,0,0,1,.69-1.18,2.4,2.4,0,0,1,1-.6,4.24,4.24,0,0,1,1.25-.18,8.47,8.47,0,0,1,1,.06,7.18,7.18,0,0,1,.82.14l-.13.89-.76-.09a8.06,8.06,0,0,0-1.13-.07,3,3,0,0,0-.79.08,1,1,0,0,0-.51.25,2.28,2.28,0,0,0-.41,1,6.89,6.89,0,0,0-.18,1.69,5.79,5.79,0,0,0,.15,1.46,2.61,2.61,0,0,0,.33.84,1.73,1.73,0,0,0,.34.41,1.45,1.45,0,0,0,.28.14,1.54,1.54,0,0,0,.49.06,3.2,3.2,0,0,0,.75-.09c.26-.06.49-.13.7-.2s.46-.18.72-.3l.33.83a5.43,5.43,0,0,1-1.07.51A3.88,3.88,0,0,1,306.14,45.88Z"/><path class="cls-2" d="M314.58,45.89a3.12,3.12,0,0,1-1.55-.37,2.49,2.49,0,0,1-1-1.24,5.86,5.86,0,0,1-.37-2.29,5.68,5.68,0,0,1,.39-2.34,2.51,2.51,0,0,1,1.05-1.2,3.19,3.19,0,0,1,1.5-.35,2.73,2.73,0,0,1,1.41.34,2.11,2.11,0,0,1,.88,1.1,5.66,5.66,0,0,1,.31,2.08v.8h-4.9l.5-.19a5.65,5.65,0,0,0,0,1.35,2.45,2.45,0,0,0,.24.74,2.16,2.16,0,0,0,.25.35,1.23,1.23,0,0,0,.44.23,2.21,2.21,0,0,0,.62.07,5.84,5.84,0,0,0,.73,0c.24,0,.46-.09.66-.14s.39-.11.55-.17a2.72,2.72,0,0,1,.4-.12l.27.85-.45.19a6.29,6.29,0,0,1-.82.25A5.35,5.35,0,0,1,314.58,45.89ZM312.76,42l-.5-.46,4.3-.09-.48.47c0-.6,0-1.12,0-1.56a2.1,2.1,0,0,0-.26-1,.89.89,0,0,0-.3-.27,2,2,0,0,0-.85-.12,2.62,2.62,0,0,0-1,.14,1.35,1.35,0,0,0-.51.37A4.24,4.24,0,0,0,312.76,42Z"/><path class="cls-2" d="M328.44,45.88a2.92,2.92,0,0,1-1.54-.4,2.6,2.6,0,0,1-1-1.25A5.76,5.76,0,0,1,325.5,42a6.05,6.05,0,0,1,.25-1.89,2.87,2.87,0,0,1,.68-1.18,2.4,2.4,0,0,1,1-.6,4.29,4.29,0,0,1,1.25-.18,8.22,8.22,0,0,1,1,.06,7.41,7.41,0,0,1,.83.14l-.13.89-.77-.09a7.82,7.82,0,0,0-1.12-.07,3.13,3.13,0,0,0-.8.08,1,1,0,0,0-.5.25,2.39,2.39,0,0,0-.42,1,7.46,7.46,0,0,0-.17,1.69,6.37,6.37,0,0,0,.14,1.46,2.87,2.87,0,0,0,.33.84,1.73,1.73,0,0,0,.35.41,1.67,1.67,0,0,0,.27.14,1.59,1.59,0,0,0,.49.06,3.35,3.35,0,0,0,.76-.09c.25-.06.49-.13.7-.2l.72-.3.33.83a5.77,5.77,0,0,1-1.08.51A3.81,3.81,0,0,1,328.44,45.88Z"/><path class="cls-2" d="M336.67,45.88a2.66,2.66,0,0,1-1.66-.47,2.6,2.6,0,0,1-.87-1.34,8.69,8.69,0,0,1,0-4.14,2.56,2.56,0,0,1,.87-1.34,3.18,3.18,0,0,1,3.33,0,2.55,2.55,0,0,1,.86,1.34,8.37,8.37,0,0,1,0,4.14,2.59,2.59,0,0,1-.86,1.34A2.67,2.67,0,0,1,336.67,45.88Zm0-.92a2.59,2.59,0,0,0,.81-.11,1,1,0,0,0,.53-.43,2.33,2.33,0,0,0,.28-.89,14.67,14.67,0,0,0,0-3.06,2.33,2.33,0,0,0-.28-.9,1,1,0,0,0-.53-.43,2.63,2.63,0,0,0-.81-.1,2.71,2.71,0,0,0-.81.1,1,1,0,0,0-.52.43,2.31,2.31,0,0,0-.29.9,13.05,13.05,0,0,0,0,3.06,2.32,2.32,0,0,0,.29.89,1,1,0,0,0,.52.43A2.69,2.69,0,0,0,336.67,45Z"/><path class="cls-2" d="M343.48,45.71V36.1h1.06v9.61Z"/><path class="cls-2" d="M349,45.71V36.1h1.06v9.61Z"/><path class="cls-2" d="M357.09,45.89a3.12,3.12,0,0,1-1.55-.37,2.49,2.49,0,0,1-1-1.24,5.86,5.86,0,0,1-.37-2.29,5.68,5.68,0,0,1,.39-2.34,2.51,2.51,0,0,1,1.05-1.2,3.19,3.19,0,0,1,1.5-.35,2.73,2.73,0,0,1,1.41.34,2.11,2.11,0,0,1,.88,1.1,5.66,5.66,0,0,1,.31,2.08v.8h-4.9l.5-.19a5.65,5.65,0,0,0,0,1.35,2.45,2.45,0,0,0,.24.74,2.16,2.16,0,0,0,.25.35,1.23,1.23,0,0,0,.44.23,2.21,2.21,0,0,0,.62.07,5.84,5.84,0,0,0,.73,0c.24,0,.46-.09.66-.14s.39-.11.55-.17a2.72,2.72,0,0,1,.4-.12l.27.85-.45.19a6.29,6.29,0,0,1-.82.25A5.35,5.35,0,0,1,357.09,45.89ZM355.27,42l-.5-.46,4.3-.09-.48.47c0-.6,0-1.12,0-1.56a2.1,2.1,0,0,0-.26-1,.89.89,0,0,0-.3-.27,2,2,0,0,0-.85-.12,2.62,2.62,0,0,0-1,.14,1.35,1.35,0,0,0-.51.37A4.24,4.24,0,0,0,355.27,42Z"/><path class="cls-2" d="M366.11,45.88a2.92,2.92,0,0,1-1.54-.4,2.6,2.6,0,0,1-1-1.25,5.76,5.76,0,0,1-.37-2.26,6.05,6.05,0,0,1,.25-1.89,3,3,0,0,1,.68-1.18,2.4,2.4,0,0,1,1-.6,4.31,4.31,0,0,1,1.26-.18,8.47,8.47,0,0,1,1,.06,7.6,7.6,0,0,1,.82.14l-.13.89-.76-.09a8.06,8.06,0,0,0-1.13-.07,3.13,3.13,0,0,0-.8.08,1,1,0,0,0-.5.25,2.39,2.39,0,0,0-.42,1,7.46,7.46,0,0,0-.17,1.69,6.37,6.37,0,0,0,.14,1.46,3.17,3.17,0,0,0,.33.84,1.73,1.73,0,0,0,.35.41,1.67,1.67,0,0,0,.27.14,1.59,1.59,0,0,0,.49.06,3.35,3.35,0,0,0,.76-.09c.25-.06.49-.13.7-.2l.72-.3.33.83a5.7,5.7,0,0,1-1.07.51A3.93,3.93,0,0,1,366.11,45.88Z"/><path class="cls-2" d="M373.9,45.89a2.35,2.35,0,0,1-1-.18,1.3,1.3,0,0,1-.63-.72,4.19,4.19,0,0,1-.23-1.57V39.55h-.84v-.67l.88-.18L372.4,37h.74v1.75h1.48v.85h-1.48v3.92c0,.47,0,.81,0,1s.09.35.2.41a1.39,1.39,0,0,0,.54.08h.36l.33,0v.86A4.53,4.53,0,0,1,373.9,45.89Z"/><path class="cls-2" d="M378.33,37V35.93h1.3V37Zm.11,8.69V38.28h1.06v7.43Z"/><path class="cls-2" d="M385,45.71l-2.16-7.43H384l1.67,6.53h.08l1.66-6.53h1.13l-2.14,7.43Z"/><path class="cls-2" d="M394.34,45.89a3.12,3.12,0,0,1-1.55-.37,2.49,2.49,0,0,1-1-1.24,5.86,5.86,0,0,1-.37-2.29,5.68,5.68,0,0,1,.39-2.34,2.51,2.51,0,0,1,1.05-1.2,3.19,3.19,0,0,1,1.5-.35,2.73,2.73,0,0,1,1.41.34,2.11,2.11,0,0,1,.88,1.1,5.66,5.66,0,0,1,.31,2.08v.8H392l.5-.19a5.65,5.65,0,0,0,0,1.35,2.2,2.2,0,0,0,.24.74,2.16,2.16,0,0,0,.25.35,1.23,1.23,0,0,0,.44.23,2.21,2.21,0,0,0,.62.07,5.84,5.84,0,0,0,.73,0c.24,0,.46-.09.66-.14s.39-.11.55-.17a2.72,2.72,0,0,1,.4-.12l.27.85-.45.19a6.29,6.29,0,0,1-.82.25A5.35,5.35,0,0,1,394.34,45.89ZM392.52,42l-.5-.46,4.3-.09-.48.47c0-.6,0-1.12,0-1.56a2.1,2.1,0,0,0-.26-1,.89.89,0,0,0-.3-.27,2,2,0,0,0-.85-.12,2.62,2.62,0,0,0-1,.14,1.35,1.35,0,0,0-.51.37A4.24,4.24,0,0,0,392.52,42Z"/></svg>